HIERARCHY
ROOT SpineBase
{
  OFFSET 0.000000 0.000000 0.000000
  CHANNELS 6 Xposition Yposition Zposition Zrotation Xrotation Yrotation
  JOINT SpineMid
  {
    OFFSET -0.000000 20.246578 0.000000
    CHANNELS 3 Zrotation Xrotation Yrotation
    JOINT SpineShoulder
    {
      OFFSET -0.100241 14.544633 -0.611102
      CHANNELS 3 Zrotation Xrotation Yrotation
      JOINT Neck
      {
        OFFSET -0.106551 4.788024 -0.369310
        CHANNELS 3 Zrotation Xrotation Yrotation
        JOINT Head
        {
          OFFSET -1.919034 7.079442 1.053876
          CHANNELS 3 Zrotation Xrotation Yrotation
          End Site
          {
            OFFSET 0 0 0
          }
        }
      }
      JOINT ShoulderLeft
      {
        OFFSET -12.508011 -3.559097 -0.209226
        CHANNELS 3 Zrotation Xrotation Yrotation
        JOINT ElbowLeft
        {
          OFFSET -1.175684 -17.529059 2.341468
          CHANNELS 3 Zrotation Xrotation Yrotation
          JOINT WristLeft
          {
            OFFSET -0.220954 -20.363782 -0.694087
            CHANNELS 3 Zrotation Xrotation Yrotation
            JOINT HandLeft
            {
              OFFSET -0.217089 -7.179540 0.810342
              CHANNELS 3 Zrotation Xrotation Yrotation
              JOINT HandTipLeft
              {
                OFFSET 0.050440 -3.760995 -0.665196
                CHANNELS 3 Zrotation Xrotation Yrotation
                End Site
                {
                  OFFSET 0 0 0
                }
              }
              JOINT ThumbLeft
              {
                OFFSET 1.080386 0.270982 -3.094432
                CHANNELS 3 Zrotation Xrotation Yrotation
                End Site
                {
                  OFFSET 0 0 0
                }
              }
            }
          }
        }
      }
      JOINT ShoulderRight
      {
        OFFSET 1.146073 -5.743917 -8.038217
        CHANNELS 3 Zrotation Xrotation Yrotation
        JOINT ElbowRight
        {
          OFFSET 2.458610 -10.823272 -11.453336
          CHANNELS 3 Zrotation Xrotation Yrotation
          JOINT WristRight
          {
            OFFSET -2.846575 -18.768538 5.557724
            CHANNELS 3 Zrotation Xrotation Yrotation
            JOINT HandRight
            {
              OFFSET 0.382836 -2.734662 0.863442
              CHANNELS 3 Zrotation Xrotation Yrotation
              JOINT HandTipRight
              {
                OFFSET 1.398936 -2.548525 -1.147212
                CHANNELS 3 Zrotation Xrotation Yrotation
                End Site
                {
                  OFFSET 0 0 0
                }
              }
              JOINT ThumbRight
              {
                OFFSET -1.889951 -0.290117 -4.582318
                CHANNELS 3 Zrotation Xrotation Yrotation
                End Site
                {
                  OFFSET 0 0 0
                }
              }
            }
          }
        }
      }
    }
  }
  JOINT HipLeft
  {
    OFFSET -4.537596 -0.561881 2.347900
    CHANNELS 3 Zrotation Xrotation Yrotation
    JOINT KneeLeft
    {
      OFFSET 2.194035 -27.468838 -2.374496
      CHANNELS 3 Zrotation Xrotation Yrotation
      JOINT AnkleLeft
      {
        OFFSET 3.012987 -24.700921 9.890619
        CHANNELS 3 Zrotation Xrotation Yrotation
        JOINT FootLeft
        {
          OFFSET -2.917989 4.971515 -8.530287
          CHANNELS 3 Zrotation Xrotation Yrotation
          End Site
          {
            OFFSET 0 0 0
          }
        }
      }
    }
  }
  JOINT HipRight
  {
    OFFSET 2.129506 0.670740 -7.417734
    CHANNELS 3 Zrotation Xrotation Yrotation
    JOINT KneeRight
    {
      OFFSET 7.136578 -26.445135 9.729060
      CHANNELS 3 Zrotation Xrotation Yrotation
      JOINT AnkleRight
      {
        OFFSET -11.000808 13.025546 -13.312936
        CHANNELS 3 Zrotation Xrotation Yrotation
        JOINT FootRight
        {
          OFFSET 0.231255 -7.055431 -1.045905
          CHANNELS 3 Zrotation Xrotation Yrotation
          End Site
          {
            OFFSET 0 0 0
          }
        }
      }
    }
  }
}
MOTION
Frames: 6
Frame Time: 0.033333
171.912329 82.263681 333.720321 0.000000 0.000000 55.678231 -0.000000 0.000000 -55.678231 -0.000000 0.000000 0.000000 -0.000000 0.000000 0.000000 0.000000 0.000000 0.000000 -0.000000 0.000000 0.000000 -0.000000 0.000000 0.000000 -0.000000 0.000000 0.000000 -0.000000 0.000000 0.000000 0.000000 0.000000 0.000000 0.000000 0.000000 0.000000 -0.000000 0.000000 0.000000 -0.000000 0.000000 0.000000 -0.000000 0.000000 0.000000 -0.000000 0.000000 0.000000 0.000000 0.000000 0.000000 0.000000 0.000000 0.000000 -0.000000 0.000000 -55.678231 -0.000000 0.000000 0.000000 -0.000000 0.000000 0.000000 0.000000 0.000000 0.000000 -0.000000 0.000000 -55.678231 -0.000000 0.000000 0.000000 -0.000000 0.000000 0.000000 0.000000 0.000000 0.000000
171.904764 82.133964 333.678082 0.075056 -0.022953 56.246908 -0.022618 0.075157 -56.246878 -0.000000 0.000000 0.000000 -2.879988 -5.699205 -1.278872 0.000000 0.000000 0.000000 -1.060719 -1.332859 -0.064490 1.314737 3.360248 -0.001342 2.882095 -0.618061 0.411121 -0.599925 3.718210 -0.775533 0.000000 0.000000 0.000000 0.000000 0.000000 0.000000 0.174157 -2.481427 -0.761470 -1.826612 4.066344 0.144409 -7.266979 -9.951262 -4.090617 -3.317202 -17.852119 -7.961045 0.000000 0.000000 0.000000 0.000000 0.000000 0.000000 0.507625 -1.098584 -56.368761 -1.915131 -0.819154 -0.257434 2.943622 -7.850766 -0.702739 0.000000 0.000000 0.000000 0.377049 0.783476 -56.188776 -0.635481 0.953356 0.344349 8.115520 -4.160033 -1.161857 0.000000 0.000000 0.000000
171.901351 82.019969 333.632742 0.144625 -0.051447 56.529953 -0.036845 0.149015 -56.529841 -0.000000 0.000000 0.000000 -5.335389 -9.831604 -2.396636 0.000000 0.000000 0.000000 -1.978525 -2.436380 -0.142384 2.536220 6.323278 -0.045972 6.133097 -0.667649 0.972128 -2.734018 5.377001 -1.491300 0.000000 0.000000 0.000000 0.000000 0.000000 0.000000 0.275423 -4.613292 -1.387190 -3.529217 7.525415 0.383795 -11.812281 -16.082336 -7.491650 -11.925567 -32.061126 -18.601822 0.000000 0.000000 0.000000 0.000000 0.000000 0.000000 0.824248 -1.880090 -56.735982 -3.326817 -1.459335 -0.472508 6.425036 -18.610396 -1.347191 0.000000 0.000000 0.000000 0.976772 1.877827 -56.386086 -1.082802 1.494141 0.646831 13.894084 -6.401468 -1.603375 0.000000 0.000000 0.000000
171.902091 81.921695 333.584301 0.209125 -0.085521 56.541836 -0.043948 0.221621 -56.541595 -0.000000 0.000000 0.000000 -7.325295 -12.526474 -3.230257 0.000000 0.000000 0.000000 -2.762972 -3.324915 -0.225043 3.678854 8.893389 -0.125493 9.534330 -0.155030 1.602510 -5.828528 5.724272 -2.168918 0.000000 0.000000 0.000000 0.000000 0.000000 0.000000 0.315396 -6.371637 -1.874133 -5.039741 10.313633 0.663468 -14.200890 -19.582189 -9.704908 -20.203200 -39.008967 -26.820273 0.000000 0.000000 0.000000 0.000000 0.000000 0.000000 0.975071 -2.354519 -56.802184 -4.199356 -1.832674 -0.608216 10.284370 -31.225502 -1.475795 0.000000 0.000000 0.000000 1.817009 3.335616 -56.292000 -1.313639 1.567108 0.889507 17.389592 -6.575955 -1.823649 0.000000 0.000000 0.000000
171.906983 81.839141 333.532758 0.268919 -0.125263 56.284930 0.367337 -0.433273 -56.249425 0.139283 0.249403 0.042427 -9.838688 -14.105960 -3.815014 0.000000 0.000000 0.000000 -4.401280 -4.193908 -0.398079 4.753908 11.075024 -0.232485 12.698970 0.794502 2.191139 -9.336602 5.269252 -2.824644 0.000000 0.000000 0.000000 0.000000 0.000000 0.000000 -0.679277 -7.928914 -2.300211 -6.288371 12.389083 0.923437 -14.907517 -21.183001 -10.672207 -27.027669 -42.338022 -31.939246 0.000000 0.000000 0.000000 0.000000 0.000000 0.000000 0.970459 -2.528143 -56.573552 -4.494845 -1.865296 -0.633697 14.162674 -43.066757 -0.700644 0.000000 0.000000 0.000000 2.914093 5.227548 -55.921849 -1.296136 1.105109 1.057204 18.559358 -4.511111 -2.089366 0.000000 0.000000 0.000000
171.916028 81.772309 333.478115 0.324321 -0.170813 55.749802 0.467729 -0.471207 -55.708003 0.266267 0.170204 0.055899 -11.159299 -14.261711 -3.893664 0.000000 0.000000 0.000000 -5.215015 -4.617394 -0.488509 5.769958 12.872068 -0.359825 15.141120 1.927603 2.637126 -12.712000 4.442461 -3.410500 0.000000 0.000000 0.000000 0.000000 0.000000 0.000000 -1.008844 -8.829249 -2.521805 -7.212768 13.729392 1.105981 -14.222822 -21.184846 -10.432647 -33.369369 -44.193576 -34.963041 0.000000 0.000000 0.000000 0.000000 0.000000 0.000000 0.807055 -2.402759 -56.041134 -4.184636 -1.511851 -0.533506 17.454797 -51.730197 0.801652 0.000000 0.000000 0.000000 4.280511 7.645194 -55.287213 -0.995557 0.027505 1.140017 17.193643 0.072606 -2.394279 0.000000 0.000000 0.000000
